<?xml version="1.0" encoding="iso-8859-1"?>
<!-- Generator: Adobe Illustrator 19.0.0, SVG Export Plug-In . SVG Version: 6.00 Build 0)  -->
<svg version="1.1" id="Capa_1" xmlns="http://www.w3.org/2000/svg" xmlns:xlink="http://www.w3.org/1999/xlink" x="0px" y="0px"
	 viewBox="0 0 512.002 512.002" style="enable-background:new 0 0 512.002 512.002;" xml:space="preserve">
<polygon style="fill:#FF5D5D;" points="206.02,502 220.942,487.077 97.189,363.323 10.137,450.374 "/>
<path style="fill:#FFC66C;" d="M206.286,472.419l8.811-8.811c9.998-9.997,23.557-15.614,37.696-15.614h91.371
	c14.176,0,27.892-5.025,38.713-14.183l108.169-91.543c13.35-11.298,14.516-31.475,2.554-44.234l0,0
	c-11.105-11.847-29.536-12.942-41.966-2.494l-89.703,75.401H246.407v-0.195l69.784-27.082c13.228-5.134,20.244-19.614,16.076-33.177
	l0,0c-4.138-13.463-17.912-21.501-31.669-18.48l-70.595,15.502c-21.304,4.678-40.822,15.361-56.245,30.784l-51.148,50.448
	L206.286,472.419z"/>
<path style="fill:#72D8FF;" d="M79.691,229.997V38c0-15.464,12.536-28,28-28h295.997c15.464,0,28,12.536,28,28v191.998
	c0,15.464-12.536,28-28,28H107.691C92.227,257.997,79.691,245.461,79.691,229.997z"/>
<polygon style="fill:#4DBAF6;" points="418.343,249.221 297.024,127.902 213.695,127.902 93.035,248.56 "/>
<path style="fill:#ADE5FF;" d="M403.687,10H107.691c-3.22,0-6.31,0.55-9.189,1.551l117.828,117.828
	c21.738,21.738,56.981,21.738,78.72,0L412.876,11.551C409.997,10.55,406.907,10,403.687,10z"/>
<path d="M442.111,373.686c-2.64,0-5.21,1.07-7.07,2.93c-1.87,1.86-2.93,4.44-2.93,7.07s1.06,5.21,2.93,7.07
	c1.86,1.86,4.44,2.93,7.07,2.93s5.21-1.07,7.07-2.93c1.859-1.86,2.93-4.44,2.93-7.07c0-2.64-1.07-5.21-2.93-7.07
	C447.321,374.756,444.741,373.686,442.111,373.686z"/>
<path d="M500.893,291.197c-14.736-15.723-39.203-17.174-55.696-3.31l-86.913,73.056h-58.972l20.497-7.955
	c18.026-6.996,27.697-26.955,22.017-45.437c-5.624-18.297-24.68-29.418-43.373-25.309l-70.595,15.501
	c-23.213,5.097-44.365,16.674-61.172,33.48l-43.726,43.727l-18.7-18.7c-1.876-1.875-4.419-2.929-7.071-2.929
	s-5.195,1.054-7.071,2.929L3.066,443.304c-3.905,3.905-3.905,10.237,0,14.142c3.906,3.905,10.236,3.905,14.143,0l79.979-79.98
	L206.8,487.078l-7.853,7.853c-3.905,3.905-3.905,10.237,0,14.142c1.953,1.952,4.512,2.929,7.071,2.929s5.118-0.977,7.071-2.929
	l14.924-14.924c3.905-3.905,3.905-10.237,0-14.143l-7.586-7.586l1.74-1.74c8.18-8.18,19.056-12.685,30.624-12.685h91.37
	c16.521,0,32.563-5.877,45.172-16.549l28.241-23.9c4.216-3.568,4.741-9.877,1.174-14.093c-3.568-4.217-9.88-4.743-14.094-1.173
	l-28.241,23.9c-9.003,7.62-20.457,11.816-32.253,11.816h-91.37c-16.911,0-32.81,6.585-44.765,18.543l-1.741,1.74l-69.185-69.185
	l43.727-43.727c14.1-14.1,31.846-23.812,51.318-28.088l70.595-15.502c8.604-1.885,17.377,3.228,19.967,11.651
	c2.615,8.508-1.837,17.696-10.136,20.917l-69.783,27.082c-3.968,1.54-6.384,5.336-6.374,9.353c-0.001,0.056-0.008,0.11-0.008,0.166
	c0,0.125,0.014,0.247,0.019,0.371c0.003,0.057,0.004,0.113,0.009,0.17c0.283,5.27,4.633,9.459,9.973,9.459h115.521
	c2.354,0,4.633-0.831,6.435-2.345l89.704-75.404c8.364-7.029,20.767-6.292,28.236,1.678c3.893,4.152,5.855,9.568,5.527,15.25
	c-0.328,5.682-2.901,10.836-7.246,14.513l-19.49,16.495c-4.216,3.568-4.741,9.877-1.173,14.093
	c3.565,4.215,9.877,4.741,14.093,1.173l19.49-16.495c8.569-7.252,13.646-17.418,14.293-28.626S508.571,299.387,500.893,291.197z"/>
<path d="M214.233,44.019c-2.63,0-5.21,1.07-7.07,2.93c-1.859,1.86-2.93,4.44-2.93,7.07s1.07,5.21,2.93,7.07
	c1.87,1.86,4.44,2.93,7.07,2.93c2.64,0,5.21-1.07,7.07-2.93c1.869-1.86,2.93-4.44,2.93-7.07s-1.061-5.21-2.93-7.07
	C219.453,45.089,216.873,44.019,214.233,44.019z"/>
<path d="M403.687,0H107.691c-20.953,0-38,17.047-38,38v191.998c0,20.953,17.047,38,38,38h295.997c20.953,0,38-17.047,38-38V38
	C441.687,17.047,424.64,0,403.687,0z M421.687,229.997c0,2.484-0.506,4.851-1.419,7.005l-109.351-109.35L414.743,23.826
	c4.218,3.297,6.944,8.418,6.944,14.174V229.997z M131.882,223.855c0.485,0.072,0.977,0.122,1.482,0.122h117.923
	c5.522,0,10-4.477,10-10s-4.478-10-10-10H151.76l62.788-62.787c11.627,9.384,25.99,14.491,41.142,14.491
	c14.993,0,29.209-5.006,40.771-14.201l106.517,106.517H107.741L131.882,223.855z M366.265,44.019H261.148c-5.522,0-10,4.477-10,10
	s4.478,10,10,10h85.117l-58.287,58.287c-17.805,17.805-46.772,17.805-64.577,0L121.094,20h269.191L366.265,44.019z M89.691,38
	c0-5.756,2.726-10.877,6.944-14.174l103.497,103.497L90.933,236.52c-0.791-2.026-1.242-4.22-1.242-6.523V38z"/>
<path d="M92.185,422.665c-2.63,0-5.2,1.06-7.07,2.93c-1.86,1.86-2.93,4.44-2.93,7.07s1.069,5.21,2.93,7.07
	c1.861,1.86,4.44,2.93,7.07,2.93c2.64,0,5.21-1.07,7.069-2.93c1.86-1.86,2.931-4.44,2.931-7.07c0-2.64-1.07-5.21-2.931-7.07
	C97.395,423.725,94.815,422.665,92.185,422.665z"/>
<g>
</g>
<g>
</g>
<g>
</g>
<g>
</g>
<g>
</g>
<g>
</g>
<g>
</g>
<g>
</g>
<g>
</g>
<g>
</g>
<g>
</g>
<g>
</g>
<g>
</g>
<g>
</g>
<g>
</g>
</svg>
