<svg id="Capa_1" enable-background="new 0 0 512 512" height="512" viewBox="0 0 512 512" width="512" xmlns="http://www.w3.org/2000/svg"><g><g><g><path d="m502.5 121.241 2 20v315.759c0 13.807-11.193 25-25 25h-447c-1.712 0-3.384-.172-5-.5-11.411-2.316-18-14.405-18-26.5v-333.759z" fill="#f9f8f9"/><path d="m228.49 119.441-220.99 2.8v334.759c0 .39.01.82.03 1.29.59 11.52 8.96 20.98 19.97 23.21v-334.259c0-3.31 2.69-6 6-6h471v-19z" fill="#e8e8e8"/><path d="m504.5 55.001v67.5h-497v-67.5c0-13.807 11.193-25 25-25h447c13.807 0 25 11.193 25 25z" fill="#83caed"/><g fill="#7abde2"><path d="m250.353 106c-8.255 0-14.947-6.716-14.947-15s6.692-15 14.947-15h185.315c8.255 0 14.947 6.716 14.947 15s-6.692 15-14.947 15z"/><ellipse cx="171.741" cy="91" rx="14.991" ry="15"/><path d="m182.264 101.684 12.911-12.869-13.177 1.179z"/><path d="m161.434 80.108 12.598-12.516-2.7 10.408z"/><ellipse cx="111.765" cy="91" rx="15.015" ry="15"/><path d="m122.331 101.657 12.438-12.499-12.731.836z"/><path d="m101.441 80.108 12.427-12.459-2.513 10.351z"/><ellipse cx="51.894" cy="91" rx="15.144" ry="15"/><path d="m62.858 101.346 12.888-13.186-13.311 1.381z"/><path d="m41.481 80.108 11.775-12.038-1.776 9.93z"/></g><ellipse cx="184.759" cy="78" fill="#afefa5" rx="14.991" ry="15"/><path d="m240.51 79.711 13.038-12.859-3.025 14.276z" fill="#7abde2"/><path d="m446.425 101.415 13.148-13.179-10.184 3.381z" fill="#7abde2"/><ellipse cx="124.735" cy="78" fill="#ffe07d" rx="15.015" ry="15"/><ellipse cx="64.606" cy="78" fill="#e15f78" rx="15.144" ry="15"/><path d="m263.332 93c-8.255 0-14.947-6.716-14.947-15s6.692-15 14.947-15h185.315c8.255 0 14.947 6.716 14.947 15s-6.692 15-14.947 15z" fill="#f9f8f9"/></g><path d="m373.605 450.523-234.605-1.023c-8.284 0-15-6.716-15-15l.735-263.335c0-8.284 3.981-17.665 12.265-17.665h238c8.284 0 15 6.716 15 15v268c0 8.284-8.11 14.023-16.395 14.023z" fill="#e8e8e8"/><path d="m137 431.5v-278c-8.284 0-15 6.716-15 15v268c0 8.284 6.716 15 15 15h238c8.284 0 15-6.716 15-15h-248c-2.761 0-5-2.239-5-5z" fill="#dcdbdd"/><path d="m355.5 269.5h-199c-2.761 0-5-2.239-5-5v-20c0-2.761 2.239-5 5-5h199c2.761 0 5 2.239 5 5v20c0 2.761-2.239 5-5 5z" fill="#f9f8f9"/><path d="m355.5 359.5h-199c-2.761 0-5-2.239-5-5v-20c0-2.761 2.239-5 5-5h199c2.761 0 5 2.239 5 5v20c0 2.761-2.239 5-5 5z" fill="#f9f8f9"/><path d="m293.5 419.5h-75c-2.761 0-5-2.239-5-5v-20c0-2.761 2.239-5 5-5h75c2.761 0 5 2.239 5 5v20c0 2.761-2.239 5-5 5z" fill="#afefa5"/></g><g><path d="m504.5 356.521c4.142 0 7.5-3.358 7.5-7.5v-294.021c0-17.92-14.58-32.5-32.5-32.5h-337.606c-4.142 0-7.5 3.358-7.5 7.5s3.358 7.5 7.5 7.5h337.606c9.649 0 17.5 7.851 17.5 17.5v61h-482v-61c0-9.649 7.851-17.5 17.5-17.5h74.458c4.142 0 7.5-3.358 7.5-7.5s-3.358-7.5-7.5-7.5h-74.458c-17.92 0-32.5 14.58-32.5 32.5v402c0 17.92 14.58 32.5 32.5 32.5h447c17.92 0 32.5-14.58 32.5-32.5v-72.873c0-4.142-3.358-7.5-7.5-7.5s-7.5 3.358-7.5 7.5v72.873c0 9.649-7.851 17.5-17.5 17.5h-447c-9.649 0-17.5-7.851-17.5-17.5v-326h482v218.021c0 4.143 3.358 7.5 7.5 7.5z"/><path d="m42.245 78c0 12.407 10.093 22.5 22.5 22.5s22.5-10.093 22.5-22.5-10.093-22.5-22.5-22.5-22.5 10.093-22.5 22.5zm30 0c0 4.136-3.364 7.5-7.5 7.5s-7.5-3.364-7.5-7.5 3.364-7.5 7.5-7.5 7.5 3.364 7.5 7.5z"/><path d="m102.245 78c0 12.407 10.093 22.5 22.5 22.5s22.5-10.093 22.5-22.5-10.093-22.5-22.5-22.5-22.5 10.093-22.5 22.5zm22.5-7.5c4.136 0 7.5 3.364 7.5 7.5s-3.364 7.5-7.5 7.5-7.5-3.364-7.5-7.5 3.364-7.5 7.5-7.5z"/><path d="m207.245 78c0-12.407-10.093-22.5-22.5-22.5s-22.5 10.093-22.5 22.5 10.093 22.5 22.5 22.5 22.5-10.093 22.5-22.5zm-30 0c0-4.136 3.364-7.5 7.5-7.5s7.5 3.364 7.5 7.5-3.364 7.5-7.5 7.5-7.5-3.364-7.5-7.5z"/><path d="m448.5 85.5h-41.415c-4.142 0-7.5 3.358-7.5 7.5s3.358 7.5 7.5 7.5h41.415c12.407 0 22.5-10.093 22.5-22.5s-10.093-22.5-22.5-22.5h-185c-12.407 0-22.5 10.093-22.5 22.5s10.093 22.5 22.5 22.5h108.564c4.142 0 7.5-3.358 7.5-7.5s-3.358-7.5-7.5-7.5h-108.564c-4.136 0-7.5-3.364-7.5-7.5s3.364-7.5 7.5-7.5h185c4.136 0 7.5 3.364 7.5 7.5s-3.364 7.5-7.5 7.5z"/><path d="m122 326.521c-4.142 0-7.5 3.358-7.5 7.5v102.479c0 12.407 10.093 22.5 22.5 22.5h238c12.407 0 22.5-10.093 22.5-22.5v-268c0-12.407-10.093-22.5-22.5-22.5h-238c-12.407 0-22.5 10.093-22.5 22.5v130.67c0 4.142 3.358 7.5 7.5 7.5s7.5-3.358 7.5-7.5v-130.67c0-4.136 3.364-7.5 7.5-7.5h238c4.136 0 7.5 3.364 7.5 7.5v268c0 4.136-3.364 7.5-7.5 7.5h-238c-4.136 0-7.5-3.364-7.5-7.5v-102.479c0-4.142-3.358-7.5-7.5-7.5z"/><path d="m325.5 191c4.142 0 7.5-3.358 7.5-7.5s-3.358-7.5-7.5-7.5h-27c-4.142 0-7.5 3.358-7.5 7.5s3.358 7.5 7.5 7.5z"/><path d="m268.5 191c4.142 0 7.5-3.358 7.5-7.5s-3.358-7.5-7.5-7.5h-81c-4.142 0-7.5 3.358-7.5 7.5s3.358 7.5 7.5 7.5z"/><path d="m144 213.5c0 4.142 3.358 7.5 7.5 7.5h60c4.142 0 7.5-3.358 7.5-7.5s-3.358-7.5-7.5-7.5h-60c-4.142 0-7.5 3.358-7.5 7.5z"/><path d="m151.5 307h90c4.142 0 7.5-3.358 7.5-7.5s-3.358-7.5-7.5-7.5h-90c-4.142 0-7.5 3.358-7.5 7.5s3.358 7.5 7.5 7.5z"/><path d="m144 264.5c0 6.893 5.607 12.5 12.5 12.5h199c6.893 0 12.5-5.607 12.5-12.5v-20c0-6.893-5.607-12.5-12.5-12.5h-199c-6.893 0-12.5 5.607-12.5 12.5zm15-17.5h194v15h-194z"/><path d="m144 354.5c0 6.893 5.607 12.5 12.5 12.5h199c6.893 0 12.5-5.607 12.5-12.5v-20c0-6.893-5.607-12.5-12.5-12.5h-199c-6.893 0-12.5 5.607-12.5 12.5zm15-17.5h194v15h-194z"/><path d="m218.5 382c-6.893 0-12.5 5.607-12.5 12.5v20c0 6.893 5.607 12.5 12.5 12.5h75c6.893 0 12.5-5.607 12.5-12.5v-20c0-6.893-5.607-12.5-12.5-12.5zm72.5 30h-70v-15h70z"/></g></g></svg>