<?xml version="1.0" encoding="UTF-8"?>
<svg xmlns="http://www.w3.org/2000/svg" width="512" height="512" viewBox="0 0 512 512"><g><g><path d="M496,60V88H16V60A19.994,19.994,0,0,1,36,40H476A19.994,19.994,0,0,1,496,60Z" fill="#d80027"/><path d="M496,88V452a19.994,19.994,0,0,1-20,20H36a19.994,19.994,0,0,1-20-20V88Z" fill="#d8d7da"/><path d="M232,304v16a40,40,0,0,1-40,40H96a40,40,0,0,1-40-40V256a40,40,0,0,1,40-40h96a40,40,0,0,1,40,40v16" fill="#ffda44"/><path d="M200,304v4a19.994,19.994,0,0,1-20,20H108a19.994,19.994,0,0,1-20-20V268a19.994,19.994,0,0,1,20-20h72a19.994,19.994,0,0,1,20,20v4" fill="#d8d7da"/><path d="M280,304v16a40,40,0,0,0,40,40h96a40,40,0,0,0,40-40V256a40,40,0,0,0-40-40H320a40,40,0,0,0-40,40v16" fill="#ffda44"/><path d="M312,304v4a19.994,19.994,0,0,0,20,20h72a19.994,19.994,0,0,0,20-20V268a19.994,19.994,0,0,0-20-20H332a19.994,19.994,0,0,0-20,20v4" fill="#d8d7da"/><rect x="168" y="272" width="176" height="32" rx="16" ry="16" fill="#ffda44"/></g><g><path d="M476,32H36A28.031,28.031,0,0,0,8,60V452a28.031,28.031,0,0,0,28,28H476a28.031,28.031,0,0,0,28-28V60A28.031,28.031,0,0,0,476,32Zm12,420a12.01,12.01,0,0,1-12,12H36a12.01,12.01,0,0,1-12-12V96H488Zm0-372H24V60A12.01,12.01,0,0,1,36,48H476a12.01,12.01,0,0,1,12,12Z"/><path d="M48,72h8a8,8,0,0,0,0-16H48a8,8,0,0,0,0,16Z"/><path d="M80,72h8a8,8,0,0,0,0-16H80a8,8,0,0,0,0,16Z"/><path d="M112,72h8a8,8,0,0,0,0-16h-8a8,8,0,0,0,0,16Z"/><path d="M416,208H320a48.051,48.051,0,0,0-48,48v8H240v-8a48.051,48.051,0,0,0-48-48H96a48.051,48.051,0,0,0-48,48v64a48.051,48.051,0,0,0,48,48h96a48.051,48.051,0,0,0,48-48v-8h32v8a48.051,48.051,0,0,0,48,48h96a48.051,48.051,0,0,0,48-48V256A48.051,48.051,0,0,0,416,208ZM224,320a32.036,32.036,0,0,1-32,32H96a32.036,32.036,0,0,1-32-32V256a32.036,32.036,0,0,1,32-32h96a32.036,32.036,0,0,1,32,32v8H207.71A28.043,28.043,0,0,0,180,240H108a28.031,28.031,0,0,0-28,28v40a28.031,28.031,0,0,0,28,28h72a28.043,28.043,0,0,0,27.71-24H224Zm-40-8h7.3a12.014,12.014,0,0,1-11.3,8H108a12.01,12.01,0,0,1-12-12V268a12.01,12.01,0,0,1,12-12h72a12.014,12.014,0,0,1,11.3,8H184a24,24,0,0,0,0,48Zm0-16a8,8,0,0,1,0-16H328a8,8,0,0,1,0,16Zm144-32h-7.3a12.014,12.014,0,0,1,11.3-8h72a12.01,12.01,0,0,1,12,12v40a12.01,12.01,0,0,1-12,12H332a12.014,12.014,0,0,1-11.3-8H328a24,24,0,0,0,0-48Zm120,56a32.036,32.036,0,0,1-32,32H320a32.036,32.036,0,0,1-32-32v-8h16.29A28.043,28.043,0,0,0,332,336h72a28.031,28.031,0,0,0,28-28V268a28.031,28.031,0,0,0-28-28H332a28.043,28.043,0,0,0-27.71,24H288v-8a32.036,32.036,0,0,1,32-32h96a32.036,32.036,0,0,1,32,32Z"/><path d="M432,432H352a8,8,0,0,0,0,16h80a8,8,0,0,0,0-16Z"/><path d="M464,432h-8a8,8,0,0,0,0,16h8a8,8,0,0,0,0-16Z"/></g></g></svg>
